<?xml version="1.0" encoding="iso-8859-1"?>
<!-- Generator: Adobe Illustrator 19.0.0, SVG Export Plug-In . SVG Version: 6.00 Build 0)  -->
<svg version="1.1" id="Layer_1" xmlns="http://www.w3.org/2000/svg" xmlns:xlink="http://www.w3.org/1999/xlink" x="0px" y="0px"
	 viewBox="0 0 512 512" style="enable-background:new 0 0 512 512;" xml:space="preserve">
<polygon style="fill:#E0E0E3;" points="451.505,0 435.485,198 415.145,449.33 415.095,450 412.715,479.33 410.075,512 101.925,512 
	99.285,479.33 96.905,450 96.855,449.33 73.495,160.63 60.495,0 "/>
<polygon style="fill:#C7C5CC;" points="255,0 255,512 410.075,512 412.715,479.33 415.095,450 415.145,449.33 435.485,198 
	451.505,0 "/>
<path style="fill:#83C9FF;" d="M435.485,198l-20.34,251.33l-0.05,0.67H96.905l-0.05-0.67l-23.36-288.7
	c4.1-2.21,8.89-4.53,14.49-6.91c0,0,85.81-28.31,154.23,16.64c4.69,3.08,9.3,6.5,13.79,10.3c64.21,54.34,163.97,22.98,163.97,22.98
	L435.485,198z"/>
<polygon style="fill:#ADACB2;" points="415.145,449.33 415.095,450 412.715,479.33 99.285,479.33 96.905,450 96.855,449.33 "/>
<polygon style="fill:#8A8791;" points="255,449.33 255,479.33 412.715,479.33 415.095,450 415.145,449.33 "/>
<path style="fill:#00A5FF;" d="M419.975,203.64c0,0-99.76,31.36-163.97-22.98c-0.333-0.282-0.671-0.547-1.005-0.824V450h160.095
	l0.05-0.67L435.485,198L419.975,203.64z"/>
<g>
</g>
<g>
</g>
<g>
</g>
<g>
</g>
<g>
</g>
<g>
</g>
<g>
</g>
<g>
</g>
<g>
</g>
<g>
</g>
<g>
</g>
<g>
</g>
<g>
</g>
<g>
</g>
<g>
</g>
</svg>
