<?xml version="1.0" encoding="iso-8859-1"?>
<!-- Generator: Adobe Illustrator 19.0.0, SVG Export Plug-In . SVG Version: 6.00 Build 0)  -->
<svg version="1.1" id="Layer_1" xmlns="http://www.w3.org/2000/svg" xmlns:xlink="http://www.w3.org/1999/xlink" x="0px" y="0px"
	 viewBox="0 0 512 512" style="enable-background:new 0 0 512 512;" xml:space="preserve">
<path style="fill:#415E72;" d="M94.666,512H77.172V56.709C77.172,25.44,102.61,0,133.88,0h132.666
	c31.269,0,56.707,25.44,56.707,56.709v43.433H305.76V56.709c0-21.623-17.591-39.215-39.213-39.215H133.88
	c-21.623,0-39.215,17.591-39.215,39.215V512z"/>
<path style="fill:#CFDCE5;" d="M339.302,146.506v-35.035c0-11.089-8.988-20.077-20.077-20.077h-9.434
	c-11.089,0-20.077,8.988-20.077,20.077v35.035"/>
<path style="fill:#BAC6CC;" d="M309.79,146.506V91.394l0,0c-11.089,0-20.077,8.988-20.077,20.077v35.035"/>
<path style="fill:#CFDCE5;" d="M314.507,143.738L314.507,143.738c-61.621,0-111.574,49.953-111.574,111.573v37.191H426.08v-37.191
	C426.081,193.691,376.128,143.738,314.507,143.738z"/>
<g>
	<path style="fill:#BAC6CC;" d="M330.251,144.849c-5.144-0.727-10.4-1.111-15.745-1.111l0,0
		c-61.621,0-111.573,49.954-111.573,111.573v37.191h31.489v-37.191C234.423,199.036,276.088,152.5,330.251,144.849z"/>
	<path style="fill:#BAC6CC;" d="M426.081,264.059H202.934c-4.832,0-8.747-3.916-8.747-8.747c0-4.831,3.915-8.747,8.747-8.747
		h223.147c4.832,0,8.747,3.916,8.747,8.747C434.828,260.143,430.912,264.059,426.081,264.059z"/>
</g>
<g>
	<path style="fill:#4EBFED;" d="M221.789,509.667c-3.542,0-6.414-2.871-6.414-6.414v-26.48c0-3.543,2.873-6.414,6.414-6.414
		s6.414,2.871,6.414,6.414v26.48C228.203,506.795,225.331,509.667,221.789,509.667z"/>
	<path style="fill:#4EBFED;" d="M221.789,455.197c-3.542,0-6.414-2.871-6.414-6.414V321.66c0-3.543,2.873-6.414,6.414-6.414
		s6.414,2.871,6.414,6.414v127.123C228.203,452.324,225.331,455.197,221.789,455.197z"/>
	<path style="fill:#4EBFED;" d="M268.148,509.667c-3.542,0-6.414-2.871-6.414-6.414V389.302c0-3.543,2.873-6.414,6.414-6.414
		c3.542,0,6.414,2.871,6.414,6.414v113.951C274.562,506.795,271.69,509.667,268.148,509.667z"/>
	<path style="fill:#4EBFED;" d="M268.148,367.727c-3.542,0-6.414-2.871-6.414-6.414V321.66c0-3.543,2.873-6.414,6.414-6.414
		c3.542,0,6.414,2.871,6.414,6.414v39.653C274.562,364.855,271.69,367.727,268.148,367.727z"/>
	<path style="fill:#4EBFED;" d="M314.507,509.667c-3.542,0-6.414-2.871-6.414-6.414v-53.305c0-3.543,2.873-6.414,6.414-6.414
		s6.414,2.871,6.414,6.414v53.305C320.921,506.795,318.049,509.667,314.507,509.667z"/>
	<path style="fill:#4EBFED;" d="M314.507,427.207c-3.542,0-6.414-2.871-6.414-6.414V321.66c0-3.543,2.873-6.414,6.414-6.414
		s6.414,2.871,6.414,6.414v99.133C320.921,424.335,318.049,427.207,314.507,427.207z"/>
	<path style="fill:#4EBFED;" d="M360.866,509.667c-3.542,0-6.414-2.871-6.414-6.414v-96.457c0-3.543,2.873-6.414,6.414-6.414
		s6.414,2.871,6.414,6.414v96.457C367.28,506.795,364.408,509.667,360.866,509.667z"/>
	<path style="fill:#4EBFED;" d="M360.866,386.387c-3.542,0-6.414-2.871-6.414-6.414V321.66c0-3.543,2.873-6.414,6.414-6.414
		s6.414,2.871,6.414,6.414v58.313C367.28,383.515,364.408,386.387,360.866,386.387z"/>
	<path style="fill:#4EBFED;" d="M407.225,509.667c-3.542,0-6.414-2.871-6.414-6.414v-25.314c0-3.543,2.873-6.414,6.414-6.414
		s6.414,2.871,6.414,6.414v25.314C413.639,506.795,410.767,509.667,407.225,509.667z"/>
	<path style="fill:#4EBFED;" d="M407.225,456.363c-3.542,0-6.414-2.871-6.414-6.414V321.66c0-3.543,2.873-6.414,6.414-6.414
		s6.414,2.871,6.414,6.414v128.289C413.639,453.491,410.767,456.363,407.225,456.363z"/>
</g>
<g>
</g>
<g>
</g>
<g>
</g>
<g>
</g>
<g>
</g>
<g>
</g>
<g>
</g>
<g>
</g>
<g>
</g>
<g>
</g>
<g>
</g>
<g>
</g>
<g>
</g>
<g>
</g>
<g>
</g>
</svg>
