<?xml version="1.0" encoding="iso-8859-1"?>
<!-- Generator: Adobe Illustrator 19.0.0, SVG Export Plug-In . SVG Version: 6.00 Build 0)  -->
<svg xmlns="http://www.w3.org/2000/svg" xmlns:xlink="http://www.w3.org/1999/xlink" version="1.1" id="Layer_1" x="0px" y="0px" viewBox="0 0 512 512" style="enable-background:new 0 0 512 512;" xml:space="preserve" width="512px" height="512px">
<g>
	<g>
		<path d="M407.647,212.991c-13.967-33.43-33.386-68.104-57.719-103.056c-41.248-59.25-81.955-98.467-83.667-100.108L256,0    l-10.26,9.828c-1.712,1.641-42.419,40.858-83.666,100.108c-24.333,34.952-43.752,69.625-57.719,103.056    c-17.713,42.398-26.694,82.997-26.694,120.669C77.661,431.998,157.664,512,256,512s178.34-80.002,178.34-178.339    C434.341,295.989,425.359,255.39,407.647,212.991z M256,482.334c-81.979,0-148.674-66.695-148.674-148.674    c0-76.828,42.833-154.594,78.764-206.303c27.545-39.639,55.391-70.472,69.909-85.683c14.521,15.214,42.367,46.048,69.909,85.683    c35.933,51.709,78.765,129.475,78.765,206.303C404.675,415.639,337.98,482.334,256,482.334z" fill="#cccccc"/>
	</g>
</g>
<g>
	<g>
		<path d="M366.407,315.11l-29.138,5.57c0.032,0.165,2.972,17.046-3.485,36.728c-8.809,26.849-30.503,45.782-64.48,56.271    l8.751,28.346c54.433-16.804,75.679-50.261,83.917-75.369C370.898,339.451,366.595,316.091,366.407,315.11z" fill="#cccccc"/>
	</g>
</g>
<g>
</g>
<g>
</g>
<g>
</g>
<g>
</g>
<g>
</g>
<g>
</g>
<g>
</g>
<g>
</g>
<g>
</g>
<g>
</g>
<g>
</g>
<g>
</g>
<g>
</g>
<g>
</g>
<g>
</g>
</svg>
